<?xml version="1.0" encoding="utf-8"?>
<!-- Generator: Adobe Illustrator 16.0.0, SVG Export Plug-In . SVG Version: 6.00 Build 0)  -->
<!DOCTYPE svg PUBLIC "-//W3C//DTD SVG 1.1//EN" "http://www.w3.org/Graphics/SVG/1.1/DTD/svg11.dtd">
<svg version="1.1" id="Layer_1" xmlns="http://www.w3.org/2000/svg" xmlns:xlink="http://www.w3.org/1999/xlink" x="0px" y="0px"
	 width="280px" height="174.291px" viewBox="0 0 280 174.291" enable-background="new 0 0 280 174.291" xml:space="preserve">
<rect x="-22.431" y="-9.423" display="none" fill="#36A9E1" width="317.569" height="193.137"/>
<path fill="#FFFFFF" d="M160.552,63.69c2.859-7.043,6.947-13.218,12.153-18.352c5.203-5.135,11.682-9.231,19.255-12.177
	c7.643-2.973,16.304-4.479,25.743-4.479H280V0h-62.297c-13.378,0-25.862,2.246-37.104,6.678
	c-11.267,4.443-21.121,10.631-29.287,18.388c-4.205,3.991-7.959,8.414-11.223,13.218c-3.303-4.881-7.116-9.381-11.4-13.45
	c-8.187-7.771-18.053-13.923-29.326-18.284C88.123,2.203,75.652,0,62.298,0H0v174.291h62.298c13.37,0,25.852-2.247,37.102-6.679
	c11.265-4.442,21.119-10.629,29.289-18.388c4.206-3.992,7.959-8.414,11.223-13.217c3.303,4.878,7.116,9.379,11.4,13.448
	c8.184,7.771,18.05,13.924,29.325,18.286c11.242,4.346,23.713,6.549,37.066,6.549H280V87.595h-30.077v58.012h-32.22
	c-9.419,0-18.065-1.541-25.698-4.577c-7.581-3.019-14.064-7.19-19.272-12.4c-5.217-5.215-9.314-11.438-12.18-18.493
	c-2.874-7.085-4.332-14.82-4.332-22.989v-0.466C156.221,78.506,157.679,70.771,160.552,63.69z M62.298,145.606h-32.22V28.683h32.22
	c9.42,0,18.066,1.54,25.696,4.576c7.581,3.021,14.065,7.193,19.272,12.402c5.217,5.216,9.315,11.438,12.181,18.491
	c2.874,7.087,4.331,14.822,4.331,22.991v0.465c0,8.176-1.457,15.911-4.33,22.99c-2.86,7.044-6.949,13.218-12.155,18.353
	c-5.201,5.134-11.679,9.231-19.253,12.177C80.397,144.1,71.736,145.606,62.298,145.606z"/>
<g>
	<g>
		<path fill="#FFFFFF" d="M154.023,246.097v19.816h-28.048v-19.816H154.023 M154.787,243.505h-29.574
			c-1.01,0-1.829,0.819-1.829,1.829v21.342c0,1.01,0.819,1.829,1.829,1.829h29.574c1.01,0,1.828-0.819,1.828-1.829v-21.342
			C156.615,244.324,155.797,243.505,154.787,243.505L154.787,243.505z"/>
	</g>
	
		<path fill="none" stroke="#FFFFFF" stroke-width="2.5915" stroke-linecap="round" stroke-linejoin="round" stroke-miterlimit="10" d="
		M154.842,245.277l-13.451,13.451c-0.768,0.769-2.014,0.769-2.782,0l-13.451-13.451"/>
	<g>
		
			<path fill="none" stroke="#FFFFFF" stroke-width="2.5915" stroke-linecap="round" stroke-linejoin="round" stroke-miterlimit="10" d="
			M143.914,256.205l10.928,10.928"/>
		
			<path fill="none" stroke="#FFFFFF" stroke-width="2.5915" stroke-linecap="round" stroke-linejoin="round" stroke-miterlimit="10" d="
			M125.158,267.133l10.928-10.928"/>
	</g>
</g>
</svg>
