<?xml version="1.0" encoding="utf-8"?>
<!-- Generator: Adobe Illustrator 16.0.0, SVG Export Plug-In . SVG Version: 6.00 Build 0)  -->
<!DOCTYPE svg PUBLIC "-//W3C//DTD SVG 1.1//EN" "http://www.w3.org/Graphics/SVG/1.1/DTD/svg11.dtd">
<svg version="1.1" id="Layer_1" xmlns="http://www.w3.org/2000/svg" xmlns:xlink="http://www.w3.org/1999/xlink" x="0px" y="0px"
	 width="37px" height="28px" viewBox="0 0 37 28" enable-background="new 0 0 37 28" xml:space="preserve">
<g>
	<g>
		<path fill="#FFFFFF" d="M33.271,3.564v20.872H3.729V3.564H33.271 M34.074,0.834H2.926C1.862,0.834,1,1.698,1,2.761v22.478
			c0,1.063,0.862,1.926,1.926,1.926h31.148c1.063,0,1.926-0.862,1.926-1.926V2.761C36,1.698,35.138,0.834,34.074,0.834L34.074,0.834
			z"/>
	</g>
	
		<path fill="none" stroke="#FFFFFF" stroke-width="2.7294" stroke-linecap="round" stroke-linejoin="round" stroke-miterlimit="10" d="
		M34.132,2.701L19.965,16.868c-0.809,0.81-2.121,0.81-2.931,0L2.867,2.701"/>
	<g>
		
			<path fill="none" stroke="#FFFFFF" stroke-width="2.7294" stroke-linecap="round" stroke-linejoin="round" stroke-miterlimit="10" d="
			M22.622,14.211l11.51,11.51"/>
		
			<path fill="none" stroke="#FFFFFF" stroke-width="2.7294" stroke-linecap="round" stroke-linejoin="round" stroke-miterlimit="10" d="
			M2.867,25.721l11.51-11.51"/>
	</g>
</g>
</svg>
